# xmcd
#
# Track frame offsets:
#	150
#	12243
#	23328
#	36085
#	46388
#	56468
#	68603
#	80924
#	91798
#	102490
#	112364
#	123300
#	132508
#	143518
#	153364
#	163448
#	173387
#	180653
#	191654
#	202610
#
# Disc length: 2847 seconds
#
# Revision: 1
# Processed by: cddbd v1.5.1PL0 Copyright (c) Steve Scherf et al.
# Submitted via: audiograbber 1.83.01
#
DISCID=060b1d14
DTITLE=Jimmy Lee Fautheree - Knocking On Your Front Door
DYEAR=2001
DGENRE=Honky Tonk and Rockabilly
TTITLE0=Knocking on Your Front Door (Pounding on Your Back)
TTITLE1=I Keep The Blues All The Time
TTITLE2=Love Is Hard To Understand
TTITLE3=Go Ahead and Go
TTITLE4=I'm Diggin' A Hole To Bury My Heart
TTITLE5=Lips That Kiss So Sweetly
TTITLE6=Kisses By Mail
TTITLE7=(I've Gotta Keep On Drinking) I've Gotta Broken Heart To Heal
TTITLE8=Warm, Warm Kisses
TTITLE9=Open for Trade
TTITLE10=Suspense
TTITLE11=Don't Forget To Remember
TTITLE12=Mistakes
TTITLE13=How About A Date
TTITLE14=Blowin' and Goin'
TTITLE15=Cryin' Won't Change My Mind
TTITLE16=Teenage Wedding
TTITLE17=Baby It's Love
TTITLE18=Nobody Knows Where You Go
TTITLE19=Please Talk To My Heart
EXTD=
EXTT0=
EXTT1=
EXTT2=
EXTT3=
EXTT4=
EXTT5=
EXTT6=
EXTT7=
EXTT8=
EXTT9=
EXTT10=
EXTT11=w/ Johnny Mathis
EXTT12=
EXTT13=
EXTT14=
EXTT15=
EXTT16=
EXTT17=
EXTT18=
EXTT19=
PLAYORDER=
